<?xml version="1.0" encoding="UTF-8" standalone="no"?>
<svg width="453px" height="314px" viewBox="0 0 453 314" version="1.1" xmlns="http://www.w3.org/2000/svg" xmlns:xlink="http://www.w3.org/1999/xlink" xmlns:sketch="http://www.bohemiancoding.com/sketch/ns">
    <!-- Generator: Sketch 3.4.4 (17249) - http://www.bohemiancoding.com/sketch -->
    <title>Slice 1</title>
    <desc>Created with Sketch.</desc>
    <defs>
        <path id="path-1" d="M0,0.576 L452.328,0.576 L452.328,314 L0,314"></path>
    </defs>
    <g id="Page-1" stroke="none" stroke-width="1" fill="none" fill-rule="evenodd" sketch:type="MSPage">
        <g sketch:type="MSLayerGroup">
            <path d="M231.901,311.149 L214.599,311.149 L214.599,178.239 L231.901,178.239 L231.901,311.149 Z" id="Fill-1" fill="#94A4A5" sketch:type="MSShapeGroup"></path>
            <path d="M212.098,313.649 L234.4,313.649 L234.4,175.739 L212.098,175.739 L212.098,313.649 Z M217.099,180.739 L229.4,180.739 L229.4,308.649 L217.099,308.649 L217.099,180.739 Z" id="Fill-2" fill="#565757" sketch:type="MSShapeGroup"></path>
            <path d="M225.801,308.512 L220.698,308.512 L220.698,175.602 L225.801,175.602 L225.801,308.512 Z" id="Fill-3" fill="#AEB6B5" sketch:type="MSShapeGroup"></path>
            <g id="Group-53">
                <path d="M184.2482,181.8969 L154.9002,152.5489 C150.6172,148.2659 148.2102,142.4559 148.2102,136.3979 L148.2102,93.1559 C148.2102,87.0979 150.6172,81.2879 154.9002,77.0039 L185.4772,46.4279 C189.7612,42.1439 195.5702,39.7379 201.6282,39.7379 L244.8702,39.7379 C250.9282,39.7379 256.7382,42.1439 261.0222,46.4279 L291.5982,77.0039 C295.8822,81.2879 298.2892,87.0979 298.2892,93.1559 L298.2892,136.3979 C298.2892,142.4559 295.8822,148.2659 291.5982,152.5489 L261.0222,183.1259 C256.7382,187.4099 250.9282,189.8159 244.8702,189.8159 L203.3662,189.8159 C196.1962,189.8159 189.3192,186.9679 184.2482,181.8969" id="Fill-4" fill="#EE3E4F" sketch:type="MSShapeGroup"></path>
                <path d="M201.6287,42.2375 C196.1947,42.2375 191.0867,44.3535 187.2447,48.1955 L156.6687,78.7715 C152.8267,82.6135 150.7107,87.7225 150.7107,93.1555 L150.7107,136.3975 C150.7107,141.8315 152.8267,146.9395 156.6687,150.7815 L186.0157,180.1295 C190.6507,184.7635 196.8127,187.3155 203.3667,187.3155 L244.8707,187.3155 C250.3037,187.3155 255.4117,185.1995 259.2537,181.3575 L289.8307,150.7815 C293.6727,146.9395 295.7887,141.8315 295.7887,136.3975 L295.7887,93.1555 C295.7887,87.7225 293.6727,82.6135 289.8307,78.7715 L259.2537,48.1955 C255.4117,44.3535 250.3037,42.2375 244.8707,42.2375 L201.6287,42.2375 Z M244.8707,192.3155 L203.3667,192.3155 C195.4767,192.3155 188.0597,189.2435 182.4807,183.6645 L153.1327,154.3165 C148.3467,149.5305 145.7107,143.1665 145.7107,136.3975 L145.7107,93.1555 C145.7107,86.3865 148.3467,80.0225 153.1327,75.2365 L183.7097,44.6595 C188.4957,39.8735 194.8597,37.2375 201.6287,37.2375 L244.8707,37.2375 C251.6397,37.2375 258.0037,39.8735 262.7897,44.6595 L293.3667,75.2365 C298.1527,80.0225 300.7887,86.3865 300.7887,93.1555 L300.7887,136.3975 C300.7887,143.1665 298.1527,149.5305 293.3667,154.3165 L262.7897,184.8935 C258.0037,189.6795 251.6397,192.3155 244.8707,192.3155 L244.8707,192.3155 Z" id="Fill-6" fill="#565757" sketch:type="MSShapeGroup"></path>
                <path d="M243.49,187.5251 L204.636,187.5251 C197.208,187.5251 190.223,184.6321 184.97,179.3791 L157.496,151.9051 C152.985,147.3941 150.501,141.3971 150.501,135.0171 L150.501,94.5361 C150.501,93.1551 151.621,92.0361 153.001,92.0361 C154.382,92.0361 155.501,93.1551 155.501,94.5361 L155.501,135.0171 C155.501,140.0611 157.465,144.8031 161.032,148.3701 L188.506,175.8441 C192.814,180.1521 198.543,182.5251 204.636,182.5251 L243.49,182.5251 C244.871,182.5251 245.99,183.6441 245.99,185.0251 C245.99,186.4061 244.871,187.5251 243.49,187.5251" id="Fill-8" fill="#F16A69" sketch:type="MSShapeGroup"></path>
                <path d="M207.1987,55.6848 C201.7647,55.6848 196.6567,57.8008 192.8147,61.6428 L170.1157,84.3418 C166.2737,88.1838 164.1577,93.2918 164.1577,98.7258 L164.1577,130.8278 C164.1577,136.2608 166.2737,141.3698 170.1157,145.2108 L192.8147,167.9108 C196.6567,171.7528 201.7647,173.8688 207.1987,173.8688 L239.3007,173.8688 C244.7337,173.8688 249.8417,171.7528 253.6837,167.9108 L276.3837,145.2108 C280.2257,141.3688 282.3417,136.2608 282.3417,130.8278 L282.3417,98.7258 C282.3417,93.2928 280.2257,88.1838 276.3837,84.3418 L253.6837,61.6428 C249.8417,57.8008 244.7337,55.6848 239.3007,55.6848 L207.1987,55.6848 Z M239.3007,178.8688 L207.1987,178.8688 C200.4297,178.8688 194.0657,176.2328 189.2797,171.4458 L166.5797,148.7468 C161.7937,143.9608 159.1577,137.5968 159.1577,130.8278 L159.1577,98.7258 C159.1577,91.9568 161.7937,85.5928 166.5797,80.8068 L189.2797,58.1068 C194.0657,53.3208 200.4297,50.6848 207.1987,50.6848 L239.3007,50.6848 C246.0697,50.6848 252.4337,53.3208 257.2197,58.1068 L279.9187,80.8068 C284.7057,85.5928 287.3417,91.9568 287.3417,98.7258 L287.3417,130.8278 C287.3417,137.5968 284.7057,143.9608 279.9187,148.7468 L257.2197,171.4458 C252.4337,176.2328 246.0697,178.8688 239.3007,178.8688 L239.3007,178.8688 Z" id="Fill-10" fill="#FEFEFE" sketch:type="MSShapeGroup"></path>
                <path d="M225.9324,62.385 C225.9324,63.867 224.7314,65.068 223.2494,65.068 C221.7674,65.068 220.5664,63.867 220.5664,62.385 C220.5664,60.903 221.7674,59.702 223.2494,59.702 C224.7314,59.702 225.9324,60.903 225.9324,62.385" id="Fill-12" fill="#94A4A5" sketch:type="MSShapeGroup"></path>
                <path d="M223.2495,60.8521 C222.4045,60.8521 221.7165,61.5401 221.7165,62.3851 C221.7165,63.2301 222.4045,63.9181 223.2495,63.9181 C224.0945,63.9181 224.7825,63.2301 224.7825,62.3851 C224.7825,61.5401 224.0945,60.8521 223.2495,60.8521 M223.2495,66.2181 C221.1365,66.2181 219.4165,64.4981 219.4165,62.3851 C219.4165,60.2721 221.1365,58.5521 223.2495,58.5521 C225.3625,58.5521 227.0825,60.2721 227.0825,62.3851 C227.0825,64.4981 225.3625,66.2181 223.2495,66.2181" id="Fill-14" fill="#38334C" sketch:type="MSShapeGroup"></path>
                <path d="M225.9324,167.4018 C225.9324,168.8838 224.7314,170.0848 223.2494,170.0848 C221.7674,170.0848 220.5664,168.8838 220.5664,167.4018 C220.5664,165.9198 221.7674,164.7188 223.2494,164.7188 C224.7314,164.7188 225.9324,165.9198 225.9324,167.4018" id="Fill-16" fill="#94A4A5" sketch:type="MSShapeGroup"></path>
                <path d="M223.2495,165.8689 C222.4045,165.8689 221.7165,166.5569 221.7165,167.4019 C221.7165,168.2469 222.4045,168.9349 223.2495,168.9349 C224.0945,168.9349 224.7825,168.2469 224.7825,167.4019 C224.7825,166.5569 224.0945,165.8689 223.2495,165.8689 M223.2495,171.2349 C221.1365,171.2349 219.4165,169.5149 219.4165,167.4019 C219.4165,165.2889 221.1365,163.5689 223.2495,163.5689 C225.3625,163.5689 227.0825,165.2889 227.0825,167.4019 C227.0825,169.5149 225.3625,171.2349 223.2495,171.2349" id="Fill-18" fill="#38334C" sketch:type="MSShapeGroup"></path>
                <path d="M198.2523,121.3715 L198.2523,109.2895 C198.2523,107.3955 198.3083,105.5035 198.4193,103.6095 L198.2523,103.6095 C197.1393,105.7255 196.2473,107.2845 195.2463,108.9545 L186.3933,121.2605 L186.3933,121.3715 L198.2523,121.3715 Z M198.2523,135.0685 L198.2523,125.2135 L181.4373,125.2135 L181.4373,121.9845 L197.5843,98.8775 L202.8743,98.8775 L202.8743,121.3715 L207.9403,121.3715 L207.9403,125.2135 L202.8743,125.2135 L202.8743,135.0685 L198.2523,135.0685 Z" id="Fill-20" fill="#FEFEFE" sketch:type="MSShapeGroup"></path>
                <path d="M216.067,117.1404 C216.067,126.5504 218.963,131.8954 223.417,131.8954 C228.428,131.8954 230.822,126.0494 230.822,116.8054 C230.822,107.8964 228.539,102.0504 223.472,102.0504 C219.185,102.0504 216.067,107.2844 216.067,117.1404 M235.722,116.5824 C235.722,128.8884 231.156,135.6814 223.139,135.6814 C216.067,135.6814 211.278,129.0554 211.167,117.0844 C211.167,104.9464 216.401,98.2644 223.751,98.2644 C231.379,98.2644 235.722,105.0574 235.722,116.5824" id="Fill-22" fill="#FEFEFE" sketch:type="MSShapeGroup"></path>
                <path d="M255.3739,121.3715 L255.3739,109.2895 C255.3739,107.3955 255.4299,105.5035 255.5409,103.6095 L255.3739,103.6095 C254.2609,105.7255 253.3689,107.2845 252.3679,108.9545 L243.5149,121.2605 L243.5149,121.3715 L255.3739,121.3715 Z M255.3739,135.0685 L255.3739,125.2135 L238.5589,125.2135 L238.5589,121.9845 L254.7059,98.8775 L259.9959,98.8775 L259.9959,121.3715 L265.0619,121.3715 L265.0619,125.2135 L259.9959,125.2135 L259.9959,135.0685 L255.3739,135.0685 Z" id="Fill-24" fill="#FEFEFE" sketch:type="MSShapeGroup"></path>
                <path d="M380.6176,313.6489 L316.2276,313.6489 C314.8466,313.6489 313.7276,312.5299 313.7276,311.1489 C313.7276,309.7679 314.8466,308.6489 316.2276,308.6489 L380.6176,308.6489 C381.9986,308.6489 383.1176,309.7679 383.1176,311.1489 C383.1176,312.5299 381.9986,313.6489 380.6176,313.6489" id="Fill-26" fill="#565757" sketch:type="MSShapeGroup"></path>
                <path d="M385.0552,157.6445 L355.9262,157.6445 C354.5462,157.6445 353.4262,156.5255 353.4262,155.1445 C353.4262,153.7635 354.5462,152.6445 355.9262,152.6445 L385.0552,152.6445 C386.4362,152.6445 387.5552,153.7635 387.5552,155.1445 C387.5552,156.5255 386.4362,157.6445 385.0552,157.6445" id="Fill-28" fill="#565757" sketch:type="MSShapeGroup"></path>
                <path d="M438.7134,157.6445 L395.7864,157.6445 C394.4064,157.6445 393.2864,156.5255 393.2864,155.1445 C393.2864,153.7635 394.4064,152.6445 395.7864,152.6445 L438.7134,152.6445 C440.0944,152.6445 441.2134,153.7635 441.2134,155.1445 C441.2134,156.5255 440.0944,157.6445 438.7134,157.6445" id="Fill-30" fill="#565757" sketch:type="MSShapeGroup"></path>
                <path d="M413.4175,168.9585 L378.1565,168.9585 C376.7755,168.9585 375.6565,167.8395 375.6565,166.4585 C375.6565,165.0775 376.7755,163.9585 378.1565,163.9585 L413.4175,163.9585 C414.7985,163.9585 415.9175,165.0775 415.9175,166.4585 C415.9175,167.8395 414.7985,168.9585 413.4175,168.9585" id="Fill-32" fill="#565757" sketch:type="MSShapeGroup"></path>
                <path d="M59.2244,37.9729 L2.5004,37.9729 C1.1194,37.9729 0.0004,36.8539 0.0004,35.4729 C0.0004,34.0919 1.1194,32.9729 2.5004,32.9729 L59.2244,32.9729 C60.6054,32.9729 61.7244,34.0919 61.7244,35.4729 C61.7244,36.8539 60.6054,37.9729 59.2244,37.9729" id="Fill-34" fill="#565757" sketch:type="MSShapeGroup"></path>
                <path d="M115.1821,37.9729 L92.1861,37.9729 C90.8051,37.9729 89.6861,36.8539 89.6861,35.4729 C89.6861,34.0919 90.8051,32.9729 92.1861,32.9729 L115.1821,32.9729 C116.5631,32.9729 117.6821,34.0919 117.6821,35.4729 C117.6821,36.8539 116.5631,37.9729 115.1821,37.9729" id="Fill-36" fill="#565757" sketch:type="MSShapeGroup"></path>
                <path d="M95.252,46.7883 L44.66,46.7883 C43.279,46.7883 42.16,45.6693 42.16,44.2883 C42.16,42.9073 43.279,41.7883 44.66,41.7883 L95.252,41.7883 C96.633,41.7883 97.752,42.9073 97.752,44.2883 C97.752,45.6693 96.633,46.7883 95.252,46.7883" id="Fill-38" fill="#565757" sketch:type="MSShapeGroup"></path>
                <path d="M110.5674,28.6184 L91.4914,28.6184 L91.6634,25.9574 C91.8154,23.5984 91.4924,20.4564 89.0884,18.8794 C87.0364,17.5344 83.8974,17.5964 81.0904,19.0384 L78.0454,20.6024 L77.4824,17.2254 C76.2634,9.9114 73.4764,8.2344 71.8114,7.2314 C71.4164,6.9934 71.0394,6.7664 70.6924,6.4894 C69.5534,5.9844 63.4144,4.6274 57.6874,6.6284 C53.7914,7.9904 50.9514,10.6214 49.2444,14.4494 L48.3644,16.4234 L46.2834,15.8374 C41.1434,14.3894 37.3324,14.6194 34.9534,16.5214 C31.6164,19.1904 31.8614,24.5684 31.8644,24.6224 L32.0044,27.2544 L16.6814,27.2654 C15.3004,27.2654 14.1814,26.1454 14.1814,24.7654 C14.1814,23.3844 15.3004,22.2654 16.6814,22.2654 L26.9834,22.2654 C27.2964,19.5714 28.3554,15.4194 31.7954,12.6454 C35.1334,9.9534 39.7834,9.2424 45.6344,10.5214 C48.4114,5.6554 52.8774,2.4384 58.6654,1.1664 C64.9374,-0.2116 72.0674,1.0564 73.8134,2.5844 C73.8914,2.6474 74.1804,2.8214 74.3904,2.9484 C76.2424,4.0624 79.8694,6.2464 81.7784,13.4264 C85.3674,12.4344 89.0274,12.8604 91.8294,14.6984 C93.5544,15.8294 96.2384,18.4054 96.6434,23.6184 L110.5674,23.6184 C111.9484,23.6184 113.0674,24.7374 113.0674,26.1184 C113.0674,27.4994 111.9484,28.6184 110.5674,28.6184" id="Fill-40" fill="#565757" sketch:type="MSShapeGroup"></path>
                <g id="Group-44">
                    <mask id="mask-2" sketch:name="Clip 43" fill="white">
                        <use xlink:href="#path-1"></use>
                    </mask>
                    <g id="Clip-43"></g>
                    <path d="M438.073,148.9644 C437.593,148.9644 437.141,148.9634 436.727,148.9604 C433.904,148.9394 432.349,148.9284 431.863,146.9484 C431.82,146.7754 431.797,146.5994 431.793,146.4254 C431.367,143.6324 430.283,141.6604 428.485,140.4014 C425.022,137.9784 419.939,138.9954 419.889,139.0064 L416.53,139.7364 L416.87,136.3154 C416.894,136.0014 417.364,127.9424 404.966,124.9064 C395.729,122.6434 389.668,128.8584 385.912,133.7284 C385.099,134.7824 384.458,135.6134 383.139,135.6134 L382.698,135.6134 L382.285,135.4634 C377.189,133.6104 373.261,133.5964 370.611,135.4224 C366.591,138.1904 366.38,144.5874 366.379,144.6514 L366.341,147.1114 L341.17,147.1114 C339.79,147.1114 338.67,145.9924 338.67,144.6114 C338.67,143.2314 339.79,142.1114 341.17,142.1114 L361.633,142.1114 C362.123,139.1444 363.561,134.2064 367.775,131.3044 C371.49,128.7444 376.378,128.3764 382.322,130.2024 C389.359,121.3154 397.375,117.9014 406.155,120.0494 C414.729,122.1494 418.548,126.4734 420.241,129.7304 C421.02,131.2274 421.435,132.6384 421.651,133.8024 C424.224,133.7024 428.099,134.0294 431.352,136.3054 C433.872,138.0684 435.562,140.6374 436.393,143.9574 C439.15,143.9834 444.702,143.9274 449.784,143.8374 C451.16,143.8054 452.303,144.9114 452.328,146.2924 C452.353,147.6724 451.253,148.8114 449.873,148.8364 C449.873,148.8364 445.994,148.9054 442.107,148.9424 C440.703,148.9554 439.298,148.9644 438.073,148.9644" id="Fill-42" fill="#565757" sketch:type="MSShapeGroup" mask="url(#mask-2)"></path>
                </g>
                <path d="M38.2189,314 L5.2579,314 C3.8769,314 2.7579,312.881 2.7579,311.5 C2.7579,310.119 3.8769,309 5.2579,309 L38.2189,309 C39.5999,309 40.7189,310.119 40.7189,311.5 C40.7189,312.881 39.5999,314 38.2189,314" id="Fill-45" fill="#565757" sketch:type="MSShapeGroup"></path>
                <path d="M83.549,314 L50.587,314 C49.207,314 48.087,312.881 48.087,311.5 C48.087,310.119 49.207,309 50.587,309 L83.549,309 C84.93,309 86.049,310.119 86.049,311.5 C86.049,312.881 84.93,314 83.549,314" id="Fill-47" fill="#565757" sketch:type="MSShapeGroup"></path>
                <path d="M430.2729,314 L397.3109,314 C395.9309,314 394.8109,312.881 394.8109,311.5 C394.8109,310.119 395.9309,309 397.3109,309 L430.2729,309 C431.6539,309 432.7729,310.119 432.7729,311.5 C432.7729,312.881 431.6539,314 430.2729,314" id="Fill-49" fill="#565757" sketch:type="MSShapeGroup"></path>
                <path d="M299.1824,314 L99.9354,314 C98.5554,314 97.4354,312.881 97.4354,311.5 C97.4354,310.119 98.5554,309 99.9354,309 L299.1824,309 C300.5634,309 301.6824,310.119 301.6824,311.5 C301.6824,312.881 300.5634,314 299.1824,314" id="Fill-51" fill="#565757" sketch:type="MSShapeGroup"></path>
            </g>
        </g>
    </g>
</svg>